<!--?xml version="1.0" encoding="UTF-8" standalone="no"?--><svg width="100%" height="100%" viewBox="0 0 86 86" version="1.1" xmlns="http://www.w3.org/2000/svg" xmlns:xlink="http://www.w3.org/1999/xlink" xml:space="preserve" xmlns:serif="http://www.serif.com/" style="fill-rule: evenodd; clip-rule: evenodd; stroke-linecap: round; stroke-linejoin: round; stroke-miterlimit: 1.5;"><path d="M31.849,68.107c2.456,0.796 4.234,3.104 4.234,5.824l0,10.303c10.967,-5.201 22.219,-13.174 29.862,-21.871c7.674,-8.734 11.445,-18.846 11.052,-27.067c0,-19.036 -15.455,-34.491 -34.491,-34.491c-19.036,0 -34.491,15.455 -34.491,34.491c0,15.32 10.01,28.321 23.84,32.812" style="fill:#fff;stroke:#000;stroke-width:0.5px;" class="vdwOBYmH_0"></path><path d="M13.312000000000001,35.296A29.194,29.194 0,1,1 71.7,35.296A29.194,29.194 0,1,1 13.312000000000001,35.296" class="vdwOBYmH_1"></path><path d="M26.585,46.035c-0.467,0 -0.7,-0.233 -0.7,-0.7c0,-0.25 0.054,-0.514 0.163,-0.795c0.109,-0.28 0.187,-0.482 0.234,-0.607c0.085,-0.21 0.253,-0.561 0.502,-1.051c0.389,-0.826 0.697,-1.425 0.923,-1.799l-3.364,3.551c-0.023,0.148 -0.125,0.257 -0.304,0.327c-0.078,0.031 -0.214,0.163 -0.409,0.397c-0.007,0.008 -0.023,0.012 -0.046,0.012c-0.024,0 -0.045,-0.008 -0.065,-0.024c-0.019,-0.015 -0.025,-0.027 -0.017,-0.035c0.202,-0.257 0.307,-0.611 0.315,-1.063l0.07,-3.399c0,-0.342 0.094,-0.626 0.281,-0.852c-0.312,0.233 -0.545,0.51 -0.701,0.829c-0.062,0.125 -0.23,0.533 -0.502,1.226c-0.623,1.542 -1.223,2.621 -1.799,3.236c-0.195,0.21 -0.444,0.389 -0.748,0.537c-0.303,0.148 -0.584,0.222 -0.841,0.222c-0.257,0 -0.49,-0.07 -0.701,-0.21c-0.389,-0.265 -0.584,-0.689 -0.584,-1.273c0,-0.101 0.016,-0.156 0.047,-0.164c0.055,-0.008 0.082,0.024 0.082,0.094c0,0.358 0.088,0.632 0.263,0.823c0.175,0.191 0.407,0.286 0.695,0.286c0.498,0 0.996,-0.276 1.495,-0.829c0.42,-0.452 0.806,-0.985 1.156,-1.6c0.101,-0.179 0.175,-0.31 0.222,-0.392c0.047,-0.081 0.121,-0.227 0.222,-0.438c0.101,-0.21 0.167,-0.346 0.199,-0.408c0.241,-0.522 0.381,-0.826 0.42,-0.911c0.288,-0.623 0.693,-1.013 1.215,-1.168l0.012,-0.012l-0.643,0c-1.238,0 -1.978,0.179 -2.219,0.537c-0.07,0.109 -0.105,0.214 -0.105,0.316c0,0.342 0.124,0.572 0.373,0.689c0.055,0.023 0.053,0.05 -0.005,0.081c-0.059,0.032 -0.121,0.03 -0.187,-0.005c-0.066,-0.035 -0.173,-0.135 -0.321,-0.298c-0.211,-0.249 -0.316,-0.467 -0.316,-0.654c0,-0.187 0.061,-0.351 0.181,-0.491c0.121,-0.14 0.368,-0.241 0.742,-0.304c0.537,-0.101 1.148,-0.151 1.834,-0.151l1.308,0c0.062,-0.008 0.056,0.019 -0.018,0.081c-0.074,0.063 -0.118,0.094 -0.134,0.094c-0.374,0.078 -0.561,0.412 -0.561,1.004c0,0.592 0.032,1.768 0.094,3.528l0,0.07l4.053,-4.275c0.311,-0.327 0.578,-0.567 0.8,-0.719c0.222,-0.151 0.442,-0.227 0.66,-0.227c0.078,0 0.117,0.006 0.117,0.017c0,0.012 -0.016,0.037 -0.047,0.076c-0.039,0.039 -0.078,0.059 -0.117,0.059c-0.327,0 -0.658,0.272 -0.993,0.817c-0.459,0.756 -0.961,1.737 -1.506,2.944c-0.545,1.207 -0.818,2.02 -0.818,2.441c0,0.218 0.074,0.327 0.222,0.327c0.054,0 0.162,-0.033 0.321,-0.099c0.16,-0.067 0.316,-0.17 0.467,-0.31c0.152,-0.14 0.279,-0.269 0.38,-0.385c0.101,-0.117 0.183,-0.215 0.245,-0.292c0.063,-0.078 0.123,-0.156 0.181,-0.234c0.059,-0.078 0.092,-0.121 0.1,-0.129c0.046,-0.07 0.077,-0.075 0.093,-0.017c0.016,0.058 0.01,0.105 -0.017,0.14c-0.028,0.035 -0.076,0.099 -0.146,0.193c-0.071,0.093 -0.135,0.175 -0.193,0.245c-0.059,0.07 -0.136,0.162 -0.234,0.275c-0.097,0.113 -0.189,0.212 -0.274,0.297c-0.39,0.366 -0.74,0.549 -1.052,0.549Z" style="fill:#fff;fill-rule:nonzero;" class="vdwOBYmH_2"></path><path d="M31.176,43.139c0,0.42 -0.21,0.934 -0.631,1.542c-0.163,0.218 -0.311,0.389 -0.444,0.513c0.514,0 0.989,-0.288 1.425,-0.864c0.039,-0.039 0.059,-0.025 0.059,0.041c0,0.066 -0.016,0.119 -0.047,0.158c-0.397,0.553 -0.849,0.829 -1.355,0.829c-0.07,0 -0.14,-0.004 -0.21,-0.012c-0.436,0.405 -0.927,0.608 -1.472,0.608c-0.319,0 -0.479,-0.137 -0.479,-0.409c0,-0.444 0.214,-0.962 0.643,-1.554c0.272,-0.389 0.603,-0.697 0.992,-0.922c0.413,-0.257 0.764,-0.386 1.052,-0.386c0.311,0 0.467,0.152 0.467,0.456Zm-0.561,0.011c0,-0.186 -0.07,-0.28 -0.21,-0.28c-0.047,0 -0.136,0.025 -0.269,0.076c-0.132,0.051 -0.298,0.179 -0.496,0.385c-0.199,0.207 -0.387,0.47 -0.567,0.789c-0.334,0.553 -0.502,0.964 -0.502,1.232c0,0.269 0.07,0.403 0.21,0.403c0.109,0 0.23,-0.037 0.362,-0.111c0.133,-0.074 0.238,-0.15 0.316,-0.228c0.241,-0.257 0.494,-0.605 0.759,-1.045c0.265,-0.44 0.397,-0.847 0.397,-1.221Z" style="fill:#fff;fill-rule:nonzero;" class="vdwOBYmH_3"></path><path d="M37.892,39.6c-0.008,0 -0.019,-0.008 -0.035,-0.024c-0.031,-0.187 -0.148,-0.319 -0.35,-0.397c-0.094,-0.031 -0.195,-0.047 -0.304,-0.047c-0.109,0 -0.23,0.024 -0.362,0.07c-0.374,0.133 -0.787,0.6 -1.238,1.402c-0.452,0.802 -0.919,1.737 -1.402,2.803c-0.008,0.008 -0.101,0.199 -0.28,0.573c-0.397,0.825 -0.596,1.306 -0.596,1.442c0,0.137 0.047,0.205 0.14,0.205c0.172,0 0.438,-0.178 0.8,-0.532c0.362,-0.354 0.629,-0.652 0.8,-0.893c0.016,0.015 0.024,0.048 0.024,0.099c0,0.051 -0.055,0.146 -0.164,0.286c-0.693,0.919 -1.335,1.378 -1.927,1.378c-0.187,0 -0.28,-0.074 -0.28,-0.222c0,-0.272 0.152,-0.646 0.455,-1.121c-0.272,0.288 -0.557,0.561 -0.852,0.818c-0.421,0.342 -0.775,0.514 -1.063,0.514c-0.141,0 -0.211,-0.086 -0.211,-0.257c0,-0.039 0.004,-0.066 0.012,-0.082c0.055,-0.436 0.236,-0.903 0.543,-1.402c0.308,-0.498 0.645,-0.887 1.011,-1.168c0.249,-0.202 0.549,-0.303 0.899,-0.303c0.179,0 0.358,0 0.537,0c0.125,-0.211 0.323,-0.575 0.596,-1.092c0.272,-0.518 0.467,-0.875 0.584,-1.069c0.709,-1.199 1.491,-1.799 2.348,-1.799c0.109,0 0.204,0.031 0.286,0.093c0.082,0.063 0.119,0.148 0.111,0.257l-0.024,0.421c0,0.031 -0.019,0.047 -0.058,0.047Zm-4.076,3.515c0,-0.148 -0.1,-0.222 -0.298,-0.222c-0.199,0 -0.419,0.113 -0.66,0.339c-0.242,0.226 -0.504,0.59 -0.789,1.092c-0.284,0.503 -0.426,0.867 -0.426,1.092c0,0.094 0.031,0.141 0.094,0.141c0.225,0 0.628,-0.345 1.208,-1.034c0.581,-0.689 0.871,-1.158 0.871,-1.408Z" style="fill:#fff;fill-rule:nonzero;" class="vdwOBYmH_4"></path><path d="M35.427,44.54c-0.116,0.304 -0.175,0.586 -0.175,0.847c0,0.261 0.16,0.391 0.479,0.391c0.117,0 0.269,-0.035 0.456,-0.105c0.303,-0.101 0.619,-0.296 0.946,-0.584c0.327,-0.288 0.596,-0.568 0.806,-0.841c0.023,0.024 0.035,0.055 0.035,0.094c0,0.039 -0.027,0.097 -0.082,0.175c-0.288,0.397 -0.646,0.748 -1.075,1.051c-0.428,0.304 -0.864,0.456 -1.308,0.456c-0.576,0 -0.864,-0.21 -0.864,-0.631c0,-0.335 0.179,-0.798 0.537,-1.39c0.203,-0.319 0.491,-0.617 0.865,-0.893c0.373,-0.277 0.732,-0.415 1.074,-0.415c0.343,0 0.514,0.163 0.514,0.49c0,0.343 -0.134,0.602 -0.403,0.777c-0.269,0.175 -0.572,0.316 -0.911,0.421c-0.339,0.105 -0.637,0.157 -0.894,0.157Zm0.094,-0.233c0.047,0 0.134,0 0.263,0c0.128,0 0.282,-0.027 0.461,-0.082c0.444,-0.132 0.732,-0.382 0.864,-0.748c0.039,-0.109 0.059,-0.212 0.059,-0.309c0,-0.097 -0.031,-0.167 -0.094,-0.21c-0.062,-0.043 -0.116,-0.065 -0.163,-0.065c-0.506,0.008 -0.97,0.479 -1.39,1.414Z" style="fill:#fff;fill-rule:nonzero;" class="vdwOBYmH_5"></path><path d="M41.945,38.77c0.195,0 0.292,0.125 0.292,0.374c0,0.413 -0.339,1.079 -1.016,1.997c-0.576,0.802 -1.378,1.667 -2.406,2.593c-0.203,0.374 -0.355,0.775 -0.456,1.204c-0.023,0.085 -0.035,0.167 -0.035,0.245c0,0.303 0.144,0.455 0.432,0.455c0.047,0 0.098,-0.004 0.152,-0.011c0.327,-0.063 0.849,-0.538 1.565,-1.425c0.016,0.015 0.024,0.048 0.024,0.099c0,0.051 -0.101,0.202 -0.304,0.455c-0.202,0.254 -0.354,0.431 -0.455,0.532c-0.444,0.444 -0.845,0.666 -1.204,0.666c-0.404,0 -0.607,-0.195 -0.607,-0.584c0,-0.312 0.125,-0.74 0.374,-1.285l-0.491,0.537c-0.054,0.078 -0.081,0.07 -0.081,-0.023c0,-0.063 0.029,-0.131 0.087,-0.205c0.059,-0.074 0.177,-0.216 0.356,-0.426c0.179,-0.21 0.312,-0.366 0.397,-0.467c0.11,-0.203 0.331,-0.643 0.666,-1.32c0.709,-1.433 1.238,-2.383 1.589,-2.85c0.085,-0.031 0.255,-0.132 0.508,-0.304c0.253,-0.171 0.457,-0.257 0.613,-0.257Zm-0.923,2.255c0.553,-0.904 0.83,-1.538 0.83,-1.904c0,-0.094 -0.035,-0.14 -0.105,-0.14c-0.257,0 -0.764,0.677 -1.519,2.032c-0.638,1.152 -1.043,1.904 -1.215,2.254c0.771,-0.638 1.441,-1.386 2.009,-2.242Z" style="fill:#fff;fill-rule:nonzero;" class="vdwOBYmH_6"></path><path d="M47.972,41.445c0.133,-0.218 0.199,-0.463 0.199,-0.736c0,-0.272 -0.043,-0.486 -0.129,-0.642c-0.148,-0.249 -0.436,-0.374 -0.864,-0.374c-0.794,0 -1.569,0.319 -2.324,0.958c-0.553,0.49 -1.007,1.076 -1.361,1.758c-0.355,0.681 -0.532,1.288 -0.532,1.822c0,0.533 0.123,0.934 0.368,1.203c0.246,0.269 0.559,0.43 0.94,0.485c0.203,0.031 0.402,0.046 0.596,0.046c0.592,0 1.153,-0.105 1.682,-0.315c0.849,-0.327 1.53,-0.81 2.044,-1.448c0.078,-0.094 0.117,-0.094 0.117,0c0,0.054 -0.031,0.124 -0.093,0.21c-0.491,0.654 -1.149,1.152 -1.974,1.495c-0.584,0.241 -1.203,0.362 -1.858,0.362c-1.059,0 -1.791,-0.28 -2.195,-0.841c-0.211,-0.288 -0.316,-0.646 -0.316,-1.075c0,-0.731 0.203,-1.446 0.608,-2.143c0.404,-0.697 0.926,-1.287 1.565,-1.769c0.817,-0.616 1.701,-0.923 2.651,-0.923c0.428,0 0.8,0.076 1.116,0.228c0.315,0.151 0.473,0.352 0.473,0.601c0,0.109 -0.072,0.282 -0.216,0.52c-0.144,0.237 -0.236,0.411 -0.275,0.52c-0.016,0.054 -0.074,0.085 -0.175,0.093c-0.031,-0.008 -0.047,-0.019 -0.047,-0.035Z" style="fill:#fff;fill-rule:nonzero;" class="vdwOBYmH_7"></path><path d="M51.418,43.618c0,-0.359 -0.111,-0.538 -0.333,-0.538c-0.222,0 -0.537,0.236 -0.946,0.707c-0.409,0.471 -0.718,0.975 -0.929,1.513l-0.245,0.654c-0.047,0 -0.14,0.023 -0.28,0.07c-0.141,0.046 -0.214,0.07 -0.222,0.07c-0.039,0 -0.041,-0.035 -0.006,-0.105c0.035,-0.07 0.101,-0.222 0.198,-0.456c0.098,-0.233 0.217,-0.529 0.357,-0.887c0.272,-0.686 0.455,-1.137 0.549,-1.355c-0.413,0.443 -0.787,0.887 -1.122,1.331c-0.054,0.078 -0.081,0.07 -0.081,-0.023c0,-0.063 0.019,-0.117 0.058,-0.164c0.553,-0.685 0.977,-1.242 1.273,-1.67c0.389,-0.055 0.615,-0.109 0.678,-0.164c0.062,-0.054 0.101,-0.081 0.116,-0.081c0.016,0 0.026,0.015 0.03,0.046c0.004,0.032 -0.018,0.074 -0.065,0.129c-0.046,0.054 -0.307,0.518 -0.782,1.39c0.21,-0.319 0.477,-0.635 0.8,-0.946c0.323,-0.312 0.599,-0.467 0.829,-0.467c0.23,0 0.38,0.097 0.45,0.292c0.031,0.038 0.047,0.081 0.047,0.128c0,0.047 -0.008,0.107 -0.024,0.181c-0.015,0.074 -0.031,0.134 -0.046,0.181c-0.086,0.195 -0.148,0.312 -0.187,0.351c-0.024,0.038 -0.063,0.062 -0.117,0.07c-0.008,-0.008 -0.016,-0.016 -0.024,-0.024c0.016,-0.085 0.024,-0.163 0.024,-0.233Z" style="fill:#fff;fill-rule:nonzero;" class="vdwOBYmH_8"></path><path d="M52.142,44.54c-0.117,0.304 -0.175,0.586 -0.175,0.847c0,0.261 0.159,0.391 0.479,0.391c0.117,0 0.268,-0.035 0.455,-0.105c0.304,-0.101 0.619,-0.296 0.946,-0.584c0.327,-0.288 0.596,-0.568 0.806,-0.841c0.024,0.024 0.035,0.055 0.035,0.094c0,0.039 -0.027,0.097 -0.081,0.175c-0.289,0.397 -0.647,0.748 -1.075,1.051c-0.428,0.304 -0.864,0.456 -1.308,0.456c-0.576,0 -0.865,-0.21 -0.865,-0.631c0,-0.335 0.18,-0.798 0.538,-1.39c0.202,-0.319 0.49,-0.617 0.864,-0.893c0.374,-0.277 0.732,-0.415 1.075,-0.415c0.342,0 0.514,0.163 0.514,0.49c0,0.343 -0.135,0.602 -0.403,0.777c-0.269,0.175 -0.573,0.316 -0.911,0.421c-0.339,0.105 -0.637,0.157 -0.894,0.157Zm0.093,-0.233c0.047,0 0.135,0 0.263,0c0.129,0 0.283,-0.027 0.462,-0.082c0.443,-0.132 0.732,-0.382 0.864,-0.748c0.039,-0.109 0.058,-0.212 0.058,-0.309c0,-0.097 -0.031,-0.167 -0.093,-0.21c-0.062,-0.043 -0.117,-0.065 -0.164,-0.065c-0.506,0.008 -0.969,0.479 -1.39,1.414Z" style="fill:#fff;fill-rule:nonzero;" class="vdwOBYmH_9"></path><path d="M58.122,44.202c0.016,0.015 0.024,0.046 0.024,0.093c0,0.047 -0.055,0.144 -0.164,0.292c-0.693,0.919 -1.335,1.378 -1.927,1.378c-0.187,0 -0.28,-0.074 -0.28,-0.222c0,-0.272 0.151,-0.646 0.455,-1.121c-0.272,0.288 -0.584,0.582 -0.934,0.882c-0.351,0.3 -0.678,0.45 -0.981,0.45c-0.141,0 -0.211,-0.086 -0.211,-0.257c0,-0.039 0.004,-0.066 0.012,-0.082c0.054,-0.444 0.234,-0.911 0.537,-1.402c0.608,-0.981 1.238,-1.471 1.892,-1.471l1.344,0c0.039,0 0.058,0.015 0.058,0.046c0,0.063 -0.035,0.094 -0.105,0.094c-0.109,0 -0.245,0.126 -0.409,0.379c-0.163,0.253 -0.379,0.643 -0.648,1.168c-0.269,0.526 -0.403,0.857 -0.403,0.993c0,0.137 0.054,0.205 0.163,0.205c0.18,0 0.429,-0.156 0.748,-0.468c0.171,-0.179 0.3,-0.319 0.385,-0.42c0.086,-0.101 0.143,-0.167 0.17,-0.199c0.027,-0.031 0.119,-0.144 0.274,-0.338Zm-1.249,-1.087c0,-0.148 -0.1,-0.222 -0.298,-0.222c-0.199,0 -0.419,0.113 -0.66,0.339c-0.242,0.226 -0.504,0.59 -0.789,1.092c-0.284,0.503 -0.426,0.867 -0.426,1.092c0,0.094 0.031,0.141 0.093,0.141c0.226,0 0.629,-0.345 1.209,-1.034c0.58,-0.689 0.871,-1.158 0.871,-1.408Z" style="fill:#fff;fill-rule:nonzero;" class="vdwOBYmH_10"></path><path d="M58.858,42.73l0.362,0.012c0.304,-0.413 0.608,-0.954 0.911,-1.624c0.07,-0.008 0.179,-0.053 0.327,-0.134c0.148,-0.082 0.255,-0.156 0.322,-0.222c0.066,-0.066 0.109,-0.099 0.128,-0.099c0.02,0 0.029,0.009 0.029,0.029c0,0.019 -0.031,0.064 -0.093,0.134c-0.062,0.07 -0.216,0.302 -0.462,0.695c-0.245,0.393 -0.469,0.8 -0.671,1.221l0.946,0c0.078,0 0.121,0.011 0.128,0.035c0.008,0.023 -0.017,0.044 -0.075,0.064c-0.059,0.019 -0.113,0.037 -0.164,0.052c-0.051,0.016 -0.162,0.032 -0.333,0.047c-0.381,0.024 -0.617,0.099 -0.707,0.228c-0.089,0.128 -0.243,0.457 -0.461,0.987c-0.405,0.981 -0.467,1.472 -0.187,1.472c0.242,0 0.685,-0.374 1.332,-1.122l0.222,-0.28c0.015,0.023 0.023,0.06 0.023,0.111c0,0.051 -0.043,0.134 -0.128,0.251c-0.717,0.919 -1.363,1.378 -1.939,1.378c-0.187,0 -0.281,-0.074 -0.281,-0.222c0,-0.186 0.152,-0.584 0.456,-1.191l0.631,-1.413c-0.795,0.965 -1.2,1.46 -1.215,1.483c-0.055,0.078 -0.082,0.07 -0.082,-0.023c0,-0.063 0.02,-0.117 0.058,-0.164c0.53,-0.662 0.896,-1.125 1.098,-1.39c-0.07,0 -0.28,0.02 -0.63,0.059c-0.078,0 -0.049,-0.063 0.087,-0.187c0.137,-0.125 0.232,-0.187 0.286,-0.187l0.082,0Z" style="fill:#fff;fill-rule:nonzero;" class="vdwOBYmH_11"></path><path d="M63.075,43.139c0,0.42 -0.21,0.934 -0.631,1.542c-0.163,0.218 -0.311,0.389 -0.444,0.513c0.514,0 0.989,-0.288 1.425,-0.864c0.039,-0.039 0.059,-0.025 0.059,0.041c0,0.066 -0.016,0.119 -0.047,0.158c-0.397,0.553 -0.849,0.829 -1.355,0.829c-0.07,0 -0.14,-0.004 -0.21,-0.012c-0.436,0.405 -0.927,0.608 -1.472,0.608c-0.319,0 -0.479,-0.137 -0.479,-0.409c0,-0.444 0.214,-0.962 0.643,-1.554c0.272,-0.389 0.603,-0.697 0.992,-0.922c0.413,-0.257 0.763,-0.386 1.052,-0.386c0.311,0 0.467,0.152 0.467,0.456Zm-0.561,0.011c0,-0.186 -0.07,-0.28 -0.21,-0.28c-0.047,0 -0.136,0.025 -0.269,0.076c-0.132,0.051 -0.298,0.179 -0.496,0.385c-0.199,0.207 -0.388,0.47 -0.567,0.789c-0.335,0.553 -0.502,0.964 -0.502,1.232c0,0.269 0.07,0.403 0.21,0.403c0.109,0 0.23,-0.037 0.362,-0.111c0.133,-0.074 0.238,-0.15 0.316,-0.228c0.241,-0.257 0.494,-0.605 0.759,-1.045c0.265,-0.44 0.397,-0.847 0.397,-1.221Z" style="fill:#fff;fill-rule:nonzero;" class="vdwOBYmH_12"></path><path d="M66.345,43.618c0,-0.359 -0.111,-0.538 -0.333,-0.538c-0.222,0 -0.537,0.236 -0.946,0.707c-0.409,0.471 -0.718,0.975 -0.928,1.513l-0.246,0.654c-0.046,0 -0.14,0.023 -0.28,0.07c-0.14,0.046 -0.214,0.07 -0.222,0.07c-0.039,0 -0.041,-0.035 -0.006,-0.105c0.035,-0.07 0.102,-0.222 0.199,-0.456c0.097,-0.233 0.216,-0.529 0.356,-0.887c0.273,-0.686 0.456,-1.137 0.549,-1.355c-0.413,0.443 -0.786,0.887 -1.121,1.331c-0.055,0.078 -0.082,0.07 -0.082,-0.023c0,-0.063 0.02,-0.117 0.058,-0.164c0.553,-0.685 0.978,-1.242 1.274,-1.67c0.389,-0.055 0.615,-0.109 0.677,-0.164c0.062,-0.054 0.101,-0.081 0.117,-0.081c0.015,0 0.025,0.015 0.029,0.046c0.004,0.032 -0.017,0.074 -0.064,0.129c-0.047,0.054 -0.308,0.518 -0.783,1.39c0.21,-0.319 0.477,-0.635 0.8,-0.946c0.323,-0.312 0.6,-0.467 0.83,-0.467c0.229,0 0.379,0.097 0.449,0.292c0.031,0.038 0.047,0.081 0.047,0.128c0,0.047 -0.008,0.107 -0.023,0.181c-0.016,0.074 -0.031,0.134 -0.047,0.181c-0.086,0.195 -0.148,0.312 -0.187,0.351c-0.023,0.038 -0.062,0.062 -0.117,0.07c-0.008,-0.008 -0.015,-0.016 -0.023,-0.024c0.015,-0.085 0.023,-0.163 0.023,-0.233Z" style="fill:#fff;fill-rule:nonzero;" class="vdwOBYmH_13"></path><path id="IF" d="M42.237,16.042c-0.037,0.001 -0.074,0.007 -0.109,0.02l-3.59,1.288c-0.27,0.097 -0.276,0.453 -0.009,0.558l0.006,0.001l6.17,2.42c0.078,0.03 0.165,0.03 0.244,0l0.713,-0.27c0.265,-0.1 0.267,-0.452 0.003,-0.555l-2.115,-0.825l1.757,-0.649c0.269,-0.1 0.271,-0.456 0.003,-0.558l-0.729,-0.278c-0.076,-0.029 -0.161,-0.029 -0.237,-0.001l-2.373,0.872l-1.033,-0.403l2.13,-0.769c0.271,-0.098 0.275,-0.456 0.006,-0.558l-0.711,-0.271c-0.04,-0.015 -0.083,-0.023 -0.126,-0.022Zm-4.885,1.754c-0.039,0.001 -0.077,0.007 -0.114,0.021l-0.726,0.26c-0.269,0.096 -0.276,0.451 -0.011,0.557l0.001,0l0.004,0.002l0.003,0.001l0.002,0l6.167,2.459c0.078,0.031 0.166,0.031 0.244,0.002l0.727,-0.276c0.264,-0.1 0.267,-0.45 0.004,-0.555l-6.175,-2.447c-0.04,-0.016 -0.083,-0.024 -0.126,-0.024Z" style="fill:#fff;fill-rule:nonzero;" class="vdwOBYmH_14"></path><path id="M" d="M35.71,18.81c-0.177,0 -0.32,0.134 -0.32,0.3l0,8.167c0,0.118 0.072,0.224 0.186,0.273l0.855,0.368c0.212,0.092 0.454,-0.053 0.454,-0.272l0,-4.318l1.338,5.236c0.023,0.089 0.089,0.164 0.178,0.202l0.818,0.353c0.176,0.076 0.384,-0.012 0.44,-0.187l1.377,-4.289l0,5.065c0,0.117 0.073,0.224 0.186,0.273l0.894,0.385c0.042,0.018 0.087,0.027 0.134,0.027c0.176,0 0.319,-0.135 0.319,-0.3l0,-8.376c0,-0.121 -0.076,-0.229 -0.194,-0.277l-1.393,-0.555c-0.176,-0.07 -0.378,0.019 -0.432,0.192l-1.625,5.174c0,0 -1.142,-4.505 -1.709,-6.734c-0.024,-0.093 -0.093,-0.17 -0.186,-0.207l-1.196,-0.476c-0.039,-0.016 -0.081,-0.024 -0.124,-0.024Z" style="fill:#fff;fill-rule:nonzero;" class="vdwOBYmH_15"></path><path id="L" d="M44.059,21.15c-0.038,0.001 -0.076,0.008 -0.111,0.021l-0.721,0.274c-0.121,0.046 -0.201,0.156 -0.201,0.279l0,8.383c0,0.166 0.144,0.301 0.321,0.301c0.044,0 0.088,-0.009 0.129,-0.026l5.983,-2.467c0.116,-0.048 0.191,-0.156 0.191,-0.275l0,-1.734c-0.001,-0.216 -0.236,-0.36 -0.447,-0.275l-4.815,1.952l0,-6.133c0,-0.169 -0.149,-0.304 -0.329,-0.3Z" style="fill:#fff;fill-rule:nonzero;" class="vdwOBYmH_16"></path><style data-made-with="vivus-instant">.vdwOBYmH_0{stroke-dasharray:237 239;stroke-dashoffset:238;animation:vdwOBYmH_draw 333ms linear 0ms forwards;}.vdwOBYmH_1{stroke-dasharray:184 186;stroke-dashoffset:185;animation:vdwOBYmH_draw 333ms linear 10ms forwards;}.vdwOBYmH_2{stroke-dasharray:74 76;stroke-dashoffset:75;animation:vdwOBYmH_draw 333ms linear 20ms forwards;}.vdwOBYmH_3{stroke-dasharray:22 24;stroke-dashoffset:23;animation:vdwOBYmH_draw 333ms linear 31ms forwards;}.vdwOBYmH_4{stroke-dasharray:37 39;stroke-dashoffset:38;animation:vdwOBYmH_draw 333ms linear 41ms forwards;}.vdwOBYmH_5{stroke-dasharray:22 24;stroke-dashoffset:23;animation:vdwOBYmH_draw 333ms linear 52ms forwards;}.vdwOBYmH_6{stroke-dasharray:35 37;stroke-dashoffset:36;animation:vdwOBYmH_draw 333ms linear 62ms forwards;}.vdwOBYmH_7{stroke-dasharray:36 38;stroke-dashoffset:37;animation:vdwOBYmH_draw 333ms linear 72ms forwards;}.vdwOBYmH_8{stroke-dasharray:19 21;stroke-dashoffset:20;animation:vdwOBYmH_draw 333ms linear 83ms forwards;}.vdwOBYmH_9{stroke-dasharray:22 24;stroke-dashoffset:23;animation:vdwOBYmH_draw 333ms linear 93ms forwards;}.vdwOBYmH_10{stroke-dasharray:26 28;stroke-dashoffset:27;animation:vdwOBYmH_draw 333ms linear 104ms forwards;}.vdwOBYmH_11{stroke-dasharray:25 27;stroke-dashoffset:26;animation:vdwOBYmH_draw 333ms linear 114ms forwards;}.vdwOBYmH_12{stroke-dasharray:22 24;stroke-dashoffset:23;animation:vdwOBYmH_draw 333ms linear 125ms forwards;}.vdwOBYmH_13{stroke-dasharray:19 21;stroke-dashoffset:20;animation:vdwOBYmH_draw 333ms linear 135ms forwards;}.vdwOBYmH_14{stroke-dasharray:44 46;stroke-dashoffset:45;animation:vdwOBYmH_draw 333ms linear 145ms forwards;}.vdwOBYmH_15{stroke-dasharray:59 61;stroke-dashoffset:60;animation:vdwOBYmH_draw 333ms linear 156ms forwards;}.vdwOBYmH_16{stroke-dasharray:32 34;stroke-dashoffset:33;animation:vdwOBYmH_draw 333ms linear 166ms forwards;}@keyframes vdwOBYmH_draw{100%{stroke-dashoffset:0;}}@keyframes vdwOBYmH_fade{0%{stroke-opacity:1;}91.48936170212767%{stroke-opacity:1;}100%{stroke-opacity:0;}}</style></svg>